<svg width="1170" height="668" viewBox="0 0 1170 668" fill="none" xmlns="http://www.w3.org/2000/svg">
<rect width="1170" height="666.956" fill="#F8F8F8"/>
<ellipse cx="39" cy="34.1" rx="10" ry="10.0294" fill="#F84B5F"/>
<ellipse cx="84" cy="34.1" rx="10" ry="10.0294" fill="#F8C74B"/>
<ellipse cx="129" cy="34.1" rx="10" ry="10.0294" fill="#ACF84B"/>
<ellipse cx="1121" cy="34.1" rx="20" ry="20.0588" fill="#9E9E9E" fill-opacity="0.15"/>
<rect x="464" y="21.0618" width="223" height="33.0971" rx="16.5485" fill="#9E9E9E" fill-opacity="0.15"/>
<rect y="76.2235" width="1170" height="590.732" fill="#EEEEEE"/>
<rect x="0.5" y="76.7235" width="93" height="590.735" fill="white" stroke="#E0E0E0"/>
<ellipse cx="47" cy="125.368" rx="25" ry="25.0735" fill="#E0E0E0"/>
<ellipse cx="47" cy="216.635" rx="25" ry="25.0735" fill="#E0E0E0"/>
<ellipse cx="47" cy="307.903" rx="25" ry="25.0735" fill="#E0E0E0"/>
<rect x="260" y="119.35" width="910" height="547.606" fill="white" fill-opacity="0.57"/>
<path d="M260 119H853.577C853.577 119 907.597 134.289 917.294 250.446C922.119 308.252 1044.17 466.465 986.6 534.61C813.334 739.688 260 645.33 260 645.33V119Z" fill="#F89E4B"/>
<path d="M260 119.35H791.179C791.179 119.35 839.521 135.048 848.198 254.31C852.517 313.661 994.522 438.525 943 508.491C787.948 719.052 260 659.751 260 659.751V119.35Z" fill="#F8C74B"/>
<path d="M260 119.35H767.176C767.176 119.35 746.5 254.246 810.608 328.965C899.671 432.769 860.394 478.939 796.5 545.099C630.942 716.527 260 555.609 260 555.609V119.35Z" fill="#F84B5F"/>
<path d="M863 119.35H1170V332.976C1170 332.976 1018.69 332.976 1013.58 235.299C1008.46 137.621 863 119.35 863 119.35Z" fill="#27C2CC"/>
<path d="M954 119.35H1170V273.803C1170 273.803 1063.54 273.803 1059.94 203.181C1056.34 132.56 954 119.35 954 119.35Z" fill="#277DCC"/>
</svg>
